# Blender v3.0.0 OBJ File: 'waystone.blend'
# www.blender.org
mtllib waystones_waystone_top.mtl
o pilar_top_Cube.013
v -0.312500 -0.500000 0.312500
v -0.312500 0.000000 0.312500
v -0.312500 -0.500000 -0.312500
v -0.312500 0.000000 -0.312500
v 0.312500 -0.500000 0.312500
v 0.312500 0.000000 0.312500
v 0.312500 -0.500000 -0.312500
v 0.312500 0.000000 -0.312500
vt 0.812500 0.375000
vt 0.812500 0.625000
vt 0.656250 0.625000
vt 0.656250 0.375000
vt 0.812500 0.375000
vt 0.812500 0.625000
vt 0.656250 0.625000
vt 0.656250 0.375000
vt 0.812500 0.375000
vt 0.812500 0.625000
vt 0.656250 0.625000
vt 0.656250 0.375000
vt 0.812500 0.375000
vt 0.812500 0.625000
vt 0.656250 0.625000
vt 0.656250 0.375000
vt 0.015625 0.968750
vt 0.015625 0.968750
vt 0.015625 0.968750
vt 0.015625 0.968750
vt 0.015625 0.968750
vt 0.015625 0.968750
vt 0.015625 0.968750
vt 0.015625 0.968750
vn -1.0000 0.0000 0.0000
vn 0.0000 0.0000 -1.0000
vn 1.0000 0.0000 0.0000
vn 0.0000 0.0000 1.0000
vn 0.0000 -1.0000 0.0000
vn 0.0000 1.0000 0.0000
usemtl Material.001
s off
f 1/1/1 2/2/1 4/3/1 3/4/1
f 3/5/2 4/6/2 8/7/2 7/8/2
f 7/9/3 8/10/3 6/11/3 5/12/3
f 5/13/4 6/14/4 2/15/4 1/16/4
f 3/17/5 7/18/5 5/19/5 1/20/5
f 8/21/6 4/22/6 2/23/6 6/24/6
o top_bottom_Cube.014
v -0.375000 0.000000 0.375000
v -0.375000 0.125000 0.375000
v -0.375000 0.000000 -0.375000
v -0.375000 0.125000 -0.375000
v 0.375000 0.000000 0.375000
v 0.375000 0.125000 0.375000
v 0.375000 0.000000 -0.375000
v 0.375000 0.125000 -0.375000
vt 0.656250 0.562500
vt 0.656250 0.625000
vt 0.468750 0.625000
vt 0.468750 0.562500
vt 0.656250 0.562500
vt 0.656250 0.625000
vt 0.468750 0.625000
vt 0.468750 0.562500
vt 0.656250 0.562500
vt 0.656250 0.625000
vt 0.468750 0.625000
vt 0.468750 0.562500
vt 0.656250 0.562500
vt 0.656250 0.625000
vt 0.468750 0.625000
vt 0.468750 0.562500
vt 0.468750 0.625000
vt 0.656250 0.625000
vt 0.656250 1.000000
vt 0.468750 1.000000
vt 0.015625 0.968750
vt 0.015625 0.968750
vt 0.015625 0.968750
vt 0.015625 0.968750
vn -1.0000 0.0000 0.0000
vn 0.0000 0.0000 -1.0000
vn 1.0000 0.0000 0.0000
vn 0.0000 0.0000 1.0000
vn 0.0000 -1.0000 0.0000
vn 0.0000 1.0000 0.0000
usemtl Material.001
s off
f 9/25/7 10/26/7 12/27/7 11/28/7
f 11/29/8 12/30/8 16/31/8 15/32/8
f 15/33/9 16/34/9 14/35/9 13/36/9
f 13/37/10 14/38/10 10/39/10 9/40/10
f 11/41/11 15/42/11 13/43/11 9/44/11
f 16/45/12 12/46/12 10/47/12 14/48/12
o top_middle_Cube.015
v -0.437500 0.125000 0.437500
v -0.437500 0.250000 0.437500
v -0.437500 0.125000 -0.437500
v -0.437500 0.250000 -0.437500
v 0.437500 0.125000 0.437500
v 0.437500 0.250000 0.437500
v 0.437500 0.125000 -0.437500
v 0.437500 0.250000 -0.437500
vt 0.468750 0.375000
vt 0.468750 0.437500
vt 0.250000 0.437500
vt 0.250000 0.375000
vt 0.468750 0.375000
vt 0.468750 0.437500
vt 0.250000 0.437500
vt 0.250000 0.375000
vt 0.468750 0.375000
vt 0.468750 0.437500
vt 0.250000 0.437500
vt 0.250000 0.375000
vt 0.468750 0.375000
vt 0.468750 0.437500
vt 0.250000 0.437500
vt 0.250000 0.375000
vt 0.250000 0.562500
vt 0.468750 0.562500
vt 0.468750 1.000000
vt 0.250000 1.000000
vt 0.250000 0.562500
vt 0.468750 0.562500
vt 0.468750 1.000000
vt 0.250000 1.000000
vn -1.0000 0.0000 0.0000
vn 0.0000 0.0000 -1.0000
vn 1.0000 0.0000 0.0000
vn 0.0000 0.0000 1.0000
vn 0.0000 -1.0000 0.0000
vn 0.0000 1.0000 0.0000
usemtl Material.001
s off
f 17/49/13 18/50/13 20/51/13 19/52/13
f 19/53/14 20/54/14 24/55/14 23/56/14
f 23/57/15 24/58/15 22/59/15 21/60/15
f 21/61/16 22/62/16 18/63/16 17/64/16
f 19/65/17 23/66/17 21/67/17 17/68/17
f 24/69/18 20/70/18 18/71/18 22/72/18
o top_top_Cube.016
v -0.312500 0.250000 0.312500
v -0.312500 0.375000 0.312500
v -0.312500 0.250000 -0.312500
v -0.312500 0.375000 -0.312500
v 0.312500 0.250000 0.312500
v 0.312500 0.375000 0.312500
v 0.312500 0.250000 -0.312500
v 0.312500 0.375000 -0.312500
vt 0.812500 0.625000
vt 0.812500 0.687500
vt 0.656250 0.687500
vt 0.656250 0.625000
vt 0.812500 0.625000
vt 0.812500 0.687500
vt 0.656250 0.687500
vt 0.656250 0.625000
vt 0.812500 0.625000
vt 0.812500 0.687500
vt 0.656250 0.687500
vt 0.656250 0.625000
vt 0.812500 0.625000
vt 0.812500 0.687500
vt 0.656250 0.687500
vt 0.656250 0.625000
vt 0.015625 0.968750
vt 0.015625 0.968750
vt 0.015625 0.968750
vt 0.015625 0.968750
vt 0.812500 1.000000
vt 0.656250 1.000000
vn -1.0000 0.0000 0.0000
vn 0.0000 0.0000 -1.0000
vn 1.0000 0.0000 0.0000
vn 0.0000 0.0000 1.0000
vn 0.0000 -1.0000 0.0000
vn 0.0000 1.0000 0.0000
usemtl Material.001
s off
f 25/73/19 26/74/19 28/75/19 27/76/19
f 27/77/20 28/78/20 32/79/20 31/80/20
f 31/81/21 32/82/21 30/83/21 29/84/21
f 29/85/22 30/86/22 26/87/22 25/88/22
f 27/89/23 31/90/23 29/91/23 25/92/23
f 32/79/24 28/78/24 26/93/24 30/94/24
o top_toppest_Cube.017
v -0.250000 0.375000 0.250000
v -0.250000 0.500000 0.250000
v -0.250000 0.375000 -0.250000
v -0.250000 0.500000 -0.250000
v 0.250000 0.375000 0.250000
v 0.250000 0.500000 0.250000
v 0.250000 0.375000 -0.250000
v 0.250000 0.500000 -0.250000
vt 0.937500 0.687500
vt 0.937500 0.750000
vt 0.812500 0.750000
vt 0.812500 0.687500
vt 0.937500 0.687500
vt 0.937500 0.750000
vt 0.812500 0.750000
vt 0.812500 0.687500
vt 0.937500 0.687500
vt 0.937500 0.750000
vt 0.812500 0.750000
vt 0.812500 0.687500
vt 0.937500 0.687500
vt 0.937500 0.750000
vt 0.812500 0.750000
vt 0.812500 0.687500
vt 0.015625 0.968750
vt 0.015625 0.968750
vt 0.015625 0.968750
vt 0.015625 0.968750
vt 0.937500 1.000000
vt 0.812500 1.000000
vn -1.0000 0.0000 0.0000
vn 0.0000 0.0000 -1.0000
vn 1.0000 0.0000 0.0000
vn 0.0000 0.0000 1.0000
vn 0.0000 -1.0000 0.0000
vn 0.0000 1.0000 0.0000
usemtl Material.001
s off
f 33/95/25 34/96/25 36/97/25 35/98/25
f 35/99/26 36/100/26 40/101/26 39/102/26
f 39/103/27 40/104/27 38/105/27 37/106/27
f 37/107/28 38/108/28 34/109/28 33/110/28
f 35/111/29 39/112/29 37/113/29 33/114/29
f 40/101/30 36/100/30 34/115/30 38/116/30
